<svg width="21" height="21" viewBox="0 0 21 21" fill="none" xmlns="http://www.w3.org/2000/svg">
<path fill="currentColor" d="M14.5703 5.76953L6.69141 13.6484L10.0837 17.0407L17.9626 9.16184L14.5703 5.76953Z"/>
<path fill="currentColor" d="M20.7817 5.3513L18.4161 2.9636C18.1287 2.6762 17.6865 2.6762 17.3991 2.9636L15.8516 4.51118L19.2562 7.91585L20.8038 6.36828C21.0691 6.08087 21.0691 5.61659 20.7817 5.3513Z"/>
<path fill="currentColor" d="M4.5557 15.8062C4.46727 15.8946 4.40094 16.0273 4.35673 16.1599L3.64926 19.233C3.53872 19.7415 4.00299 20.2058 4.51148 20.0952L7.58453 19.3877C7.71718 19.3656 7.82772 19.2993 7.93827 19.1888L8.8226 18.3044L5.44003 14.9219L4.5557 15.8062Z"/>
</svg>
