<svg viewBox="0 0 28 22" xmlns="http://www.w3.org/2000/svg">
    <path fill="currentcolor" d="M26.837.983C25.212-.295 22.785-.061 21.1.225c-2.194.374-4.886 1.189-8.003 2.132a1151.372 1151.372 0 0 1-1.014.308c-.117.04-2.891.976-4.5 1.757-4.756 2.307-5.768 5.386-5.78 7.563-.007 1.08.229 2.183.7 3.287C.894 17.425 0 19.478 0 21.14c0 .474.489.859 1.092.859.604 0 1.093-.385 1.093-.86 0-1.03.514-2.57 1.79-4.429.496.213 1.201.464 2.095.65.698.144 1.573.26 2.592.26 1.375 0 3.012-.21 4.83-.838a19.777 19.777 0 0 0 2.33-.975c.51-.253.663-.784.34-1.185-.321-.401-.996-.521-1.506-.268-.653.325-1.34.612-2.043.855-2.04.704-4.02.876-5.884.509a8.604 8.604 0 0 1-1.628-.485 27.582 27.582 0 0 1 2.647-2.73c3.058-2.77 8.609-6.735 17.8-10.058.32.396.408 1.021-.392 2.25-.412.632-.991 1.322-1.686 2.068l-.065.021c-1.255.463-3.73.595-4.58.606-.603.008-1.084.4-1.073.874.01.47.497.845 1.091.845h.019a28.147 28.147 0 0 0 2.45-.153l-.528.52c-.466.46-.947.933-1.433 1.419-1.606.284-3.21.4-5.012.363h-.03c-.59 0-1.075.37-1.09.836-.017.474.46.87 1.063.882.24.005.476.007.71.007 1.851 0 3.534-.156 5.241-.486l.031-.007.063-.015.043-.013c.019-.005.038-.011.056-.018l.045-.017.05-.021.044-.022a1.14 1.14 0 0 0 .088-.05l.04-.026a.972.972 0 0 0 .043-.031l.034-.027.041-.037.023-.02c.56-.563 1.117-1.112 1.657-1.643 1.951-1.92 3.637-3.579 4.61-5.072.566-.87.85-1.629.864-2.318.018-.842-.362-1.575-1.128-2.178ZM6.098 11.377a31.027 31.027 0 0 0-1.972 1.949 6.273 6.273 0 0 1-.139-1.334C4 9.646 5.373 7.708 8.067 6.228l-.014.029c-.224.44.048.94.608 1.117.133.042.27.061.406.061.433 0 .843-.204 1.014-.54.492-.966.827-1.422 1.33-2.106.776-.285 1.4-.498 1.514-.537l.957-.29c3.31-1.001 6.2-1.876 8.319-2.15-8.11 3.244-13.185 6.922-16.103 9.566Z"></path>
</svg>
