<svg viewBox="0 0 38 23" fill="none" xmlns="http://www.w3.org/2000/svg"><path d="M0 23V0h5.276c.044.148.066.318.066.51 0 .178-.022.341-.066.489a.787.787 0 0 1-.13.333H1.57L2.812.355v22.29l-1.242-.977h3.532a.68.68 0 0 1 .174.355c.044.148.066.304.066.466 0 .193-.015.363-.044.511H0ZM6.685 17.272c0-.325.03-.584.088-.777.072-.192.16-.31.261-.355l1.526-.489-.392.467V4.263l.414.466-1.897-.466c0-.252.03-.467.088-.644.058-.193.174-.385.348-.577h5.538c0 .325-.029.592-.087.799-.058.192-.145.303-.262.333l-1.678.488.348-.466v11.478l-.218-.244 5.124.4-.284.377.59-2.798c.246 0 .464.037.653.111.204.06.4.163.589.311v3.441H6.685ZM17.816 17.272c0-.325.029-.584.087-.777.073-.192.16-.31.262-.355l1.526-.555-.785.821L23.594 3.33c.058-.163.181-.288.37-.377.19-.09.393-.148.61-.178.219-.03.4-.044.546-.044.16 0 .32.007.48.022.16.015.32.044.479.089l5.123 13.476-.85-.733 2.071.466c0 .237-.029.452-.087.644-.058.178-.181.37-.37.577h-5.43c0-.325.03-.584.088-.777.073-.192.16-.31.262-.355l1.548-.489-.175.644-4.382-11.5.828-.022-4.164 11.589-.152-.844 2.31.533c0 .237-.028.452-.087.644-.058.178-.181.37-.37.577h-4.426Zm3.51-4.484.305-1.421h5.43l.326 1.42h-6.06ZM38 23V0h-5.276a1.81 1.81 0 0 0-.066.51c0 .178.015.341.044.489.044.148.095.259.153.333h3.575L35.188.355v22.29l1.242-.977h-3.532a.832.832 0 0 0-.196.355c-.029.148-.044.304-.044.466 0 .193.015.363.044.511H38Z" fill="#4C3ED9"></path></svg>
