<svg viewBox="0 0 42 27" fill="none" xmlns="http://www.w3.org/2000/svg"><path d="M10.687 17.272c0-.325.03-.584.088-.777.072-.192.16-.31.261-.355l1.526-.489-.392.467V4.263l.414.466-1.897-.466c0-.252.03-.467.088-.644.058-.193.174-.385.348-.577h5.538c0 .325-.029.592-.087.799-.058.192-.145.303-.262.333l-1.679.488.35-.466v11.478l-.219-.244 5.124.4-.284.377.59-2.798c.246 0 .464.037.653.111.204.06.4.163.589.311v3.441H10.687ZM21.818 17.272c0-.325.029-.584.087-.777.073-.192.16-.31.262-.355l1.526-.555-.785.821L27.595 3.33c.059-.163.182-.288.371-.377.189-.09.392-.148.61-.178.218-.03.4-.044.546-.044.16 0 .32.007.48.022.16.015.319.044.479.089l5.123 13.476-.85-.733 2.071.466c0 .237-.029.452-.087.644-.058.178-.182.37-.37.577h-5.43c0-.325.03-.584.088-.777.073-.192.16-.31.261-.355l1.548-.489-.174.644-4.382-11.5.828-.022-4.164 11.589-.152-.844 2.31.533c0 .237-.029.452-.087.644-.058.178-.181.37-.37.577h-4.426Zm3.51-4.484.305-1.421h5.429l.327 1.42h-6.061Z" fill="#4C3ED9"></path><path d="M42.002 23V0h-5.276a1.81 1.81 0 0 0-.066.51c0 .178.015.341.044.489.044.148.094.259.153.333h3.575L39.19.355v22.29l1.243-.977H6.9a.832.832 0 0 0-.196.355c-.03.148-.044.304-.044.466 0 .193.015.363.044.511h35.298Z" fill="#4C3ED9"></path><path d="M1.331 23.344a1 1 0 0 1 0-1.688l4.635-2.944a1 1 0 0 1 1.536.845v5.886a1 1 0 0 1-1.536.845L1.33 23.344Z" fill="#4C3ED9"></path></svg>
