<svg viewBox="0 0 766 120" fill="none" xmlns="http://www.w3.org/2000/svg"><g clip-path="url(#vocal_svg__a)"><rect y="13" width="766" height="94" rx="10" fill="#E6E6E6"></rect><rect x="-383" y="13" width="1532" height="94" rx="10" fill="#E6E6E6"></rect><rect x="6" y="22" width="10" height="75" rx="5" fill="#fff"></rect><rect x="30" y="39.5" width="10" height="40" rx="5" fill="#fff"></rect><rect x="54" y="22" width="10" height="75" rx="5" fill="#fff"></rect><rect x="78" y="39.5" width="10" height="40" rx="5" fill="#fff"></rect><rect x="102" y="22" width="10" height="75" rx="5" fill="#fff"></rect><rect x="126" y="39.5" width="10" height="40" rx="5" fill="#fff"></rect><rect x="150" y="22" width="10" height="75" rx="5" fill="#fff"></rect><rect x="174" y="39.5" width="10" height="40" rx="5" fill="#fff"></rect><rect x="198" y="22" width="10" height="75" rx="5" fill="#fff"></rect><rect x="222" y="39.5" width="10" height="40" rx="5" fill="#fff"></rect><rect x="246" y="22" width="10" height="75" rx="5" fill="#fff"></rect><rect x="270" y="39.5" width="10" height="40" rx="5" fill="#fff"></rect><rect x="294" y="22" width="10" height="75" rx="5" fill="#fff"></rect><rect x="318" y="39.5" width="10" height="40" rx="5" fill="#fff"></rect><rect x="342" y="22" width="10" height="75" rx="5" fill="#fff"></rect><rect x="366" y="39.5" width="10" height="40" rx="5" fill="#fff"></rect><rect x="390" y="39.5" width="10" height="40" rx="5" fill="#fff"></rect><rect x="414" y="22" width="10" height="75" rx="5" fill="#fff"></rect><rect x="438" y="39.5" width="10" height="40" rx="5" fill="#fff"></rect><rect x="462" y="22" width="10" height="75" rx="5" fill="#fff"></rect><rect x="486" y="39.5" width="10" height="40" rx="5" fill="#fff"></rect><rect x="510" y="22" width="10" height="75" rx="5" fill="#fff"></rect><rect x="534" y="39.5" width="10" height="40" rx="5" fill="#fff"></rect><rect x="558" y="22" width="10" height="75" rx="5" fill="#fff"></rect><rect x="582" y="39.5" width="10" height="40" rx="5" fill="#fff"></rect><rect x="606" y="22" width="10" height="75" rx="5" fill="#fff"></rect><rect x="630" y="39.5" width="10" height="40" rx="5" fill="#fff"></rect><rect x="654" y="22" width="10" height="75" rx="5" fill="#fff"></rect><rect x="678" y="39.5" width="10" height="40" rx="5" fill="#fff"></rect><rect x="702" y="22" width="10" height="75" rx="5" fill="#fff"></rect><rect x="726" y="39.5" width="10" height="40" rx="5" fill="#fff"></rect><rect x="750" y="22" width="10" height="75" rx="5" fill="#fff"></rect></g><rect x="1" y="14" width="764" height="92" rx="9" stroke="#666" stroke-width="2"></rect><rect x="1" y="15" width="207" height="92" rx="10" fill="#666" fill-opacity="0.5"></rect><rect x="558" y="14" width="207" height="92" rx="10" fill="#666" fill-opacity="0.5"></rect><rect x="200" width="8" height="120" rx="4" fill="#666"></rect><rect x="558" width="8" height="120" rx="4" fill="#666"></rect><defs><clipPath id="vocal_svg__a"><rect y="13" width="766" height="94" rx="10" fill="#fff"></rect></clipPath></defs></svg>
