<svg xmlns="http://www.w3.org/2000/svg" viewBox="0 0 20 20" width="20" height="20" fill="none">
    <path class="c-reaction_add__bg" fill="none" d="M10.28 4.117a7 7 0 1 0 5.604 5.604A2.5 2.5 0 0 1 13 7.25v-.251h-.251a2.5 2.5 0 0 1-2.47-2.883Z"></path>
    <path class="c-reaction_add__fg" fill="currentColor" fill-rule="evenodd" d="M15.5 1a.75.75 0 0 1 .75.75v2h2a.75.75 0 0 1 0 1.5h-2v2a.75.75 0 0 1-1.5 0v-2h-2a.75.75 0 0 1 0-1.5h2v-2A.75.75 0 0 1 15.5 1Zm-13 10a6.5 6.5 0 0 1 7.166-6.466.75.75 0 0 0 .152-1.493 8 8 0 1 0 7.14 7.139.75.75 0 0 0-1.492.152A6.525 6.525 0 0 1 15.5 11a6.5 6.5 0 1 1-13 0Zm4.25-.5a1.25 1.25 0 1 0 0-2.5 1.25 1.25 0 0 0 0 2.5Zm4.5 0a1.25 1.25 0 1 0 0-2.5 1.25 1.25 0 0 0 0 2.5ZM9 15c1.277 0 2.553-.724 3.06-2.173.148-.426-.209-.827-.66-.827H6.6c-.452 0-.808.4-.66.827C6.448 14.276 7.724 15 9 15Z" clip-rule="evenodd"></path>
</svg>
