<svg width="23" height="15" viewBox="0 0 23 15" fill="none" xmlns="http://www.w3.org/2000/svg" xmlns:xlink="http://www.w3.org/1999/xlink">
<rect rx="2" ry="2" width="22.3404" height="15" fill="black"/>
<path d="M9.91602 9.86523C9.91602 9.21582 9.99658 8.69824 10.1577 8.3125C10.3188 7.92676 10.6362 7.50439 11.1099 7.04541C11.5884 6.58154 11.8911 6.25195 12.0181 6.05664C12.2134 5.75879 12.311 5.43652 12.311 5.08984C12.311 4.63086 12.1963 4.28174 11.9668 4.04248C11.7422 3.79834 11.4102 3.67627 10.9707 3.67627C10.5508 3.67627 10.2114 3.7959 9.95264 4.03516C9.69873 4.26953 9.57178 4.58936 9.57178 4.99463H7.79199C7.80176 4.13037 8.09473 3.44678 8.6709 2.94385C9.25195 2.44092 10.0186 2.18945 10.9707 2.18945C11.9521 2.18945 12.7163 2.43848 13.2632 2.93652C13.8149 3.43457 14.0908 4.13037 14.0908 5.02393C14.0908 5.81982 13.7197 6.60352 12.9775 7.375L12.0767 8.26123C11.7544 8.62744 11.5884 9.16211 11.5786 9.86523H9.91602ZM9.7915 12.1431C9.7915 11.855 9.88184 11.623 10.0625 11.4473C10.2432 11.2666 10.4873 11.1763 10.7949 11.1763C11.1074 11.1763 11.354 11.269 11.5347 11.4546C11.7153 11.6353 11.8057 11.8647 11.8057 12.1431C11.8057 12.4116 11.7178 12.6362 11.542 12.8169C11.3662 12.9976 11.1172 13.0879 10.7949 13.0879C10.4727 13.0879 10.2236 12.9976 10.0479 12.8169C9.87695 12.6362 9.7915 12.4116 9.7915 12.1431Z" fill="white"/>
</svg>
